<?xml version="1.0" encoding="UTF-8" standalone="no"?>
<svg width="29px" height="35px" viewBox="0 0 29 35" version="1.1" xmlns="http://www.w3.org/2000/svg" xmlns:xlink="http://www.w3.org/1999/xlink">
    <!-- Generator: Sketch 48.1 (47250) - http://www.bohemiancoding.com/sketch -->
    <title>Group 3</title>
    <desc>Created with Sketch.</desc>
    <defs></defs>
    <g id="Desktop-HD" stroke="none" stroke-width="1" fill="none" fill-rule="evenodd" transform="translate(-189.000000, -1034.000000)">
        <g id="Group-3" transform="translate(189.000000, 1034.000000)" fill="#2D4762">
            <path d="M2.01388889,11.1363636 C0.901906496,11.1363636 0.000408266697,12.1124676 0,13.3167894 L0,17.025611 L0,18.7697944 L0,22.4786652 C0.000408266697,23.6828887 0.901906496,24.6590909 2.01388889,24.6590909 C3.12587128,24.6590909 4.02736951,23.6828887 4.02777778,22.4786652 L4.02777778,18.7697944 L4.02777778,17.025611 L4.02777778,13.3167894 C4.02736951,12.1124676 3.12587128,11.1363636 2.01388889,11.1363636" id="Fill-1"></path>
            <path d="M29,13.3167894 C28.9996371,12.1124676 28.098038,11.1363636 26.9860884,11.1363636 C25.8740935,11.1363636 24.9726759,12.1124676 24.9723129,13.3167894 L24.9722222,13.3167894 L24.9722222,17.025611 L24.9722222,18.7697944 L24.9722222,22.4786652 L24.9723129,22.4786652 C24.9726759,23.6828887 25.8740935,24.6590909 26.9860884,24.6590909 C28.098038,24.6590909 28.9996371,23.6828887 29,22.4786652 L29,18.7697944 L29,17.025611 L29,13.3167894 Z" id="Fill-3"></path>
            <path d="M4.93948588,11.9318182 L4.83333333,11.9318182 L4.83333333,25.8966502 C4.83333333,27.0618217 5.79467312,28.0151265 6.96961725,28.0151265 L8.77002411,28.0151265 L8.77002411,29.2801235 L8.77002411,32.8823349 C8.77040907,34.0518964 9.72669627,35 10.9062599,35 C12.0858235,35 13.0421107,34.0518964 13.0425438,32.8823349 L13.0425438,29.2801235 L13.0425438,28.0151265 L15.9574562,28.0151265 L15.9574562,29.2801235 L15.9574562,32.8823349 C15.9579855,34.0518964 16.9142246,35 18.0937882,35 C19.2733037,35 20.2295909,34.0518964 20.2300721,32.8823349 L20.2300721,29.2801235 L20.2300721,28.0151265 L22.0304309,28.0151265 C23.2054231,28.0151265 24.1666667,27.0618217 24.1666667,25.8966502 L24.1666667,11.9318182 L24.1318278,11.9318182 L4.93948588,11.9318182 Z" id="Fill-5"></path>
            <path d="M10.0946746,5.8307408 C10.5970082,5.8307408 11.0042744,6.24277923 11.0042744,6.75110793 C11.0042744,7.25938784 10.5970082,7.67142628 10.0946746,7.67142628 C9.59234107,7.67142628 9.18507487,7.25938784 9.18507487,6.75110793 C9.18507487,6.24277923 9.59234107,5.8307408 10.0946746,5.8307408 Z M18.9053254,5.8307408 C19.4076589,5.8307408 19.8148769,6.24277923 19.8148769,6.75110793 C19.8148769,7.25938784 19.4076589,7.67142628 18.9053254,7.67142628 C18.4029918,7.67142628 17.9957739,7.25938784 17.9957739,6.75110793 C17.9957739,6.24277923 18.4029918,5.8307408 18.9053254,5.8307408 Z M24.1666667,11.1363636 L24.1666667,10.0924874 C24.1387057,9.79629973 24.0944502,9.50440463 24.0345751,9.21738745 C23.5046663,6.67789026 21.7535855,4.52677355 19.3518334,3.27758542 L20.8293304,0.519703469 C20.9208785,0.348829712 20.8581591,0.135225321 20.6893326,0.0426422808 C20.5204097,-0.0500870974 20.3094007,0.0134722817 20.2179008,0.184297259 L18.7216506,2.97734906 C17.450149,2.42438734 16.0243316,2.11405367 14.5178131,2.11405367 C12.9999655,2.11405367 11.5636869,2.42877747 10.2849539,2.98959265 L8.78214744,0.184297259 C8.69059932,0.0134722817 8.4795421,-0.0500870974 8.3106674,0.0426422808 C8.14179269,0.135225321 8.07912152,0.348829712 8.17066964,0.519703469 L9.6559282,3.29226798 C7.3665503,4.49218906 5.67264495,6.51311391 5.07191766,8.90783425 C4.91605928,9.52918449 4.83333333,10.1755585 4.83333333,10.8394443 C4.83333333,10.9388564 4.83588839,11.037732 4.83955224,11.1363636 L24.1666667,11.1363636 Z" id="Fill-7"></path>
        </g>
    </g>
</svg>