<?xml version="1.0" encoding="UTF-8" standalone="no"?>
<svg width="10px" height="11px" viewBox="0 0 10 11" version="1.1" xmlns="http://www.w3.org/2000/svg" xmlns:xlink="http://www.w3.org/1999/xlink">
    <!-- Generator: Sketch 48.1 (47250) - http://www.bohemiancoding.com/sketch -->
    <title>Page 1</title>
    <desc>Created with Sketch.</desc>
    <defs></defs>
    <g id="Desktop-HD" stroke="none" stroke-width="1" fill="none" fill-rule="evenodd" transform="translate(-1010.000000, -37.000000)">
        <g id="Group-2" transform="translate(1010.000000, 31.000000)" fill="#FFFFFF">
            <g id="Page-1" transform="translate(0.000000, 6.000000)">
                <path d="M8.56728087,0 L2.43217045,0 C1.64238489,0 1,0.60614859 1,1.35126771 C1,1.5934243 1.20842668,1.78957231 1.46454666,1.78957231 C1.72120159,1.78957231 1.92909332,1.59291956 1.92909332,1.35126771 C1.92909332,1.08940054 2.154666,0.876557434 2.43222532,0.876557434 L8.56733574,0.876557434 C8.84488135,0.876557434 9.0710027,1.0893876 9.0710027,1.35126771 L9.0710027,9.64821449 C9.0710027,9.91008165 8.84543002,10.1234295 8.56733574,10.1234295 L2.43222532,10.1234295 C2.15467971,10.1234295 1.92909332,9.91059933 1.92909332,9.64821449 C1.92909332,9.40605789 1.72066664,9.20990989 1.46454666,9.20990989 C1.20789173,9.20990989 1,9.40656263 1,9.64821449 C1,10.3933854 1.64243976,11 2.43217045,11 L8.56728087,11 C9.35706644,11 10,10.3933465 10,9.64821449 L10,1.35126771 C10,0.606096822 9.35702528,0 8.56728087,0 Z" id="Fill-1"></path>
                <path d="M2.76317918,7.34597957 C2.59271644,7.48962354 2.58487922,7.72930958 2.74554605,7.88124672 C2.82881624,7.9602699 2.94147663,8 3.05462106,8 C3.15944423,8 3.26426991,7.96550958 3.34606544,7.89652761 L5.86676721,5.77517485 C5.95199732,5.70357304 6,5.604036 6,5.49968958 C6,5.39534317 5.95199732,5.29580277 5.86676721,5.22420432 L3.34656702,3.10318686 C3.17610429,2.95998996 2.90719348,2.96652837 2.7460351,3.11846775 C2.58487671,3.27040489 2.59271393,3.51009093 2.76317918,3.6537349 L4.50692999,5.12158136 L0.42467718,5.12158136 C0.190049527,5.12158136 0,5.29141253 0,5.50010536 C0,5.70923408 0.19053857,5.87862935 0.42467718,5.87862935 L4.50692999,5.87862935 L2.76317918,7.34597957 Z" id="Fill-2"></path>
            </g>
        </g>
    </g>
</svg>