<?xml version="1.0" encoding="UTF-8" standalone="no"?>
<svg width="41px" height="29px" viewBox="0 0 41 29" version="1.1" xmlns="http://www.w3.org/2000/svg" xmlns:xlink="http://www.w3.org/1999/xlink">
    <!-- Generator: Sketch 48.1 (47250) - http://www.bohemiancoding.com/sketch -->
    <title>Page 1</title>
    <desc>Created with Sketch.</desc>
    <defs></defs>
    <g id="Desktop-HD" stroke="none" stroke-width="1" fill="none" fill-rule="evenodd" transform="translate(-729.000000, -741.000000)">
        <g id="Page-1" transform="translate(729.000000, 741.000000)" fill="#2D4762">
            <path d="M7.66507703,29 C6.92744759,29 6.32842203,28.4026276 6.32842203,27.6633576 C6.32842203,26.3300524 5.80860471,25.07756 4.86638566,24.13366 C3.92412437,23.1914076 2.67001493,22.6716374 1.33665499,22.6716374 C0.597378031,22.6716374 0,22.074265 0,21.3366424 C0,20.5990199 0.597378031,20 1.33665499,20 C3.38288914,20 5.30860002,20.7970176 6.75576636,22.2442126 C8.20297494,23.6914076 9,25.6171426 9,27.6632731 C9,28.4008956 8.40262197,28.9999155 7.66499254,28.9999155 L7.66507703,29 Z" id="Fill-1"></path>
            <path d="M13.691867,28.999876 C12.9700458,28.999876 12.383858,28.4153004 12.383858,27.691867 C12.383858,24.7335615 11.2324827,21.9511124 9.1396931,19.860183 C7.04690351,17.7673934 4.26623208,16.6160181 1.30800899,16.6160181 C0.584575556,16.6144017 0,16.0298303 0,15.308009 C0,14.5861878 0.584575556,14 1.30800899,14 C4.96556484,14 8.40344455,15.4242545 10.9904425,18.0095576 C13.5773578,20.596473 15,24.0343114 15,27.691991 C15,28.4138122 14.4138122,29 13.691991,29 L13.691867,28.999876 Z" id="Fill-2"></path>
            <path d="M1.5007213,29 C1.10476564,29 0.720692448,28.838681 0.437449382,28.5604248 C0.160139957,28.2807062 0,27.8944317 0,27.5007388 C0,27.1055683 0.15867458,26.7193013 0.437449382,26.4395752 C0.719208089,26.1613342 1.10328508,26 1.5007213,26 C1.89371583,26 2.28075015,26.161319 2.55955153,26.4395752 C2.83835291,26.7178313 3,27.1040906 3,27.5007388 C3,27.8929541 2.8383605,28.279221 2.55955153,28.5589472 C2.2822421,28.8371882 1.8951964,29 1.5007213,29 Z" id="Fill-3"></path>
            <path d="M19.2811941,29 C18.5633865,29 17.9804581,28.4116649 17.9804581,27.6835788 C17.9804581,26.9571154 18.5617832,26.3671577 19.2811941,26.3671577 L37.5778998,26.3671577 L37.5795071,2.63280074 L2.59986906,2.63280074 L2.59986906,9.86997603 C2.59986906,10.5964395 2.01854356,11.1863972 1.2991331,11.1863972 C0.581325498,11.1863972 0,10.5964395 0,9.86997603 L0,1.31642117 C0,0.589957721 0.581325498,0 1.30073595,0 L38.8801198,0 C39.5979274,0 40.1808557,0.588335129 40.1808557,1.31642117 L40.1808557,27.6835372 C40.1792525,28.4100007 39.5980055,28.9999584 38.8785946,28.9999584 L19.2811941,29 Z" id="Fill-4"></path>
        </g>
    </g>
</svg>