<?xml version="1.0" encoding="UTF-8" standalone="no"?>
<svg width="40px" height="29px" viewBox="0 0 40 29" version="1.1" xmlns="http://www.w3.org/2000/svg" xmlns:xlink="http://www.w3.org/1999/xlink">
    <!-- Generator: Sketch 48.1 (47250) - http://www.bohemiancoding.com/sketch -->
    <title>Page 1</title>
    <desc>Created with Sketch.</desc>
    <defs></defs>
    <g id="Desktop-HD" stroke="none" stroke-width="1" fill="none" fill-rule="evenodd" transform="translate(-786.000000, -742.000000)">
        <g id="Page-1" transform="translate(786.000000, 742.000000)" fill="#2D4762">
            <path d="M38.5804655,0 L1.41873466,0 C0.634388744,0 0,0.611311945 0,1.3657092 L0,21.6327875 C0,22.3871462 0.634348745,23 1.41873466,23 L6.5578404,23 C7.21094867,23 7.74061916,22.4895647 7.74061916,21.8601744 C7.74061916,21.2322874 7.21094867,20.7218521 6.5578404,20.7218521 L2.36431729,20.7218521 L2.36431729,2.27803224 L37.6356824,2.27803224 L37.6356824,20.7218521 L33.4421577,20.7218521 C32.7890495,20.7218521 32.259379,21.2322874 32.259379,21.8601744 C32.259379,22.4895647 32.7890495,23 33.4421577,23 L38.5812655,23 C39.3656114,23 40,22.3871847 40,21.6327875 L40,1.3657092 C40,0.611350492 39.3656514,0 38.5812655,0 L38.5804655,0 Z" id="Fill-1"></path>
            <path d="M31.9041247,28.2902774 C31.919841,28.2530626 31.9324149,28.2127477 31.9418463,28.1739808 C31.9418463,28.1414184 31.9418463,28.108856 31.9748522,28.0700892 L31.9764255,28.0700892 C32.0078582,27.9150298 32.0078582,27.7553141 31.9764255,27.6017989 C31.9764255,27.5645841 31.9764255,27.5320217 31.9434196,27.4979072 L31.9418463,27.4979072 C31.9324149,27.4575923 31.919841,27.4188254 31.9041247,27.3800586 C31.8868351,27.3397436 31.8648338,27.3009768 31.8428285,27.2637621 C31.8428285,27.235848 31.8145383,27.207942 31.7956755,27.1800279 L31.7956755,27.1784758 C31.7500957,27.1148992 31.6998001,27.0544267 31.6432157,27.0001547 L20.8280699,16.3442373 C20.6048826,16.1240491 20.3015362,16 19.9855999,16 C19.6696797,16 19.3663212,16.1240491 19.1431299,16.3442373 L8.33281248,27.0140482 C8.30923797,27.037306 8.29037514,27.0698683 8.26680062,27.09313 L8.26680062,27.0946821 C8.2385104,27.1241403 8.2117894,27.1551546 8.18507242,27.187721 C8.15992466,27.2311401 8.1347769,27.2745553 8.11434485,27.3195226 C8.11434485,27.3427804 8.08605462,27.366042 8.07662321,27.3892998 C8.05461791,27.4435717 8.03732833,27.4978437 8.02475445,27.5536638 L8.02475445,27.6094839 L8.02475445,27.6110321 C7.99174852,27.7645433 7.99174852,27.9242551 8.02475445,28.0793224 L8.02475445,28.1537519 L8.02475445,28.155304 C8.03575508,28.2018234 8.04990221,28.2498909 8.06719179,28.2948582 C8.06719179,28.332073 8.10491343,28.359983 8.11906056,28.3987499 C8.13320768,28.4359646 8.15206649,28.468527 8.175641,28.4979891 C8.26365816,28.6251385 8.37524983,28.7352345 8.50413511,28.8205168 L8.57486268,28.8577316 L8.57643592,28.8592837 C8.61887327,28.8840935 8.66287983,28.9089033 8.70846367,28.9290608 L8.80433899,28.9569708 L8.93322025,28.9941856 L30.7864215,28.9941856 C30.863438,29.0019381 30.9420237,29.0019381 31.0190362,28.9941856 L31.124343,28.9662755 L31.2437968,28.9290608 C31.2830877,28.9104514 31.3239558,28.8902939 31.3616775,28.8685883 L31.4465521,28.8220689 L31.4481214,28.8205168 C31.5770026,28.7352345 31.6885983,28.6251385 31.7750422,28.4979891 C31.7750422,28.4700791 31.8033365,28.442169 31.8221953,28.414255 L31.8237685,28.4127029 C31.853632,28.37394 31.880349,28.3336211 31.9039275,28.2902059 L31.9041247,28.2902774 Z M19.9905248,18.8315826 L27.9323882,26.6714861 L12.043833,26.6714861 L19.9905248,18.8315826 Z" id="Fill-2"></path>
        </g>
    </g>
</svg>