<?xml version="1.0" encoding="UTF-8" standalone="no"?>
<svg width="1576px" height="362px" viewBox="0 0 1576 362" version="1.1" xmlns="http://www.w3.org/2000/svg" xmlns:xlink="http://www.w3.org/1999/xlink">
    <!-- Generator: Sketch 48.1 (47250) - http://www.bohemiancoding.com/sketch -->
    <title>Page 1</title>
    <desc>Created with Sketch.</desc>
    <defs>
        <polygon id="path-1" points="0 362 1576 362 1576 0 0 0"></polygon>
    </defs>
    <g id="Page-1" stroke="none" stroke-width="1" fill="none" fill-rule="evenodd" opacity="0.0579370486">
        <g>
            <path d="M673.988104,246.972763 C681.261901,233.132118 684.904829,217.75273 684.904829,200.843988 C684.904829,184.229043 681.261901,169.001248 673.988104,155.152554 C666.707607,141.310568 656.739463,130.449479 644.076972,122.577335 C631.413141,114.707875 617.507312,110.773145 602.374222,110.773145 C587.233094,110.773145 573.185245,114.707875 560.234696,122.577335 C547.277449,130.449479 537.015887,141.310568 529.448673,155.152554 C521.874759,169.001248 518.095171,184.229043 518.095171,200.843988 C518.095171,217.75273 521.949788,233.132118 529.667061,246.972763 C537.376295,260.821457 547.637856,271.752306 560.453085,279.765311 C573.258934,287.786365 587.233094,291.789514 602.374222,291.789514 C617.507312,291.789514 631.413141,287.786365 644.076972,279.765311 C656.739463,271.752306 666.707607,260.821457 673.988104,246.972763 Z M745.384937,119.954629 C759.795872,143.85949 767,170.674146 767,200.406647 C767,230.432944 759.795872,257.542739 745.384937,281.733347 C730.974001,305.932005 711.174373,325.020745 685.99677,339.011642 C660.812468,353.003881 632.648441,360 601.49933,360 C570.34754,360 542.180833,353.080348 517.00323,339.231654 C491.818928,325.389668 472.025999,306.295561 457.616403,281.952018 C443.205468,257.617865 436,230.432944 436,200.406647 C436,170.674146 443.205468,143.85949 457.616403,119.954629 C472.025999,96.0564758 491.818928,77.2548245 517.00323,63.549675 C542.180833,49.8512332 570.34754,43 601.49933,43 C632.648441,43 660.812468,49.8512332 685.99677,63.549675 C711.174373,77.2548245 730.974001,96.0564758 745.384937,119.954629 Z" id="Fill-1" fill="#FFFFFF"></path>
            <path d="M881.0171,278.078556 C881.0171,284.565527 882.377929,289.599492 885.118357,293.181789 C887.8494,296.766764 893.142556,298.558583 901.007209,298.558583 C905.790892,298.558583 911.597543,298.045678 918.436547,297.022547 L921,353.344293 C914.159655,355.390555 906.390193,357.006941 897.676865,358.208182 C888.962196,359.400049 879.990109,360 870.764627,360 C857.091982,360 845.64627,357.952399 836.419447,353.855858 C827.192624,349.760657 819.840125,344.303512 814.378039,337.472373 C808.906567,330.64793 804.974241,322.879367 802.589103,314.17472 C800.193239,305.470072 799,296.510982 799,287.294769 L799,48 L881.0171,48 L881.0171,278.078556 Z" id="Fill-3" fill="#FC3F3F"></path>
            <mask id="mask-2" fill="white">
                <use xlink:href="#path-1"></use>
            </mask>
            <g id="Clip-6"></g>
            <path d="M956.110666,355 L1037.88933,355 L1037.88933,103.801844 L956.110666,103.801844 L956.110666,355 Z M951,46.1393672 C951,33.1547509 955.256437,22.2216074 963.777332,13.3292101 C972.290206,4.44619865 983.365766,0 997,0 C1010.62354,0 1021.70044,4.44619865 1030.22133,13.3292101 C1038.73421,22.2216074 1043,33.1547509 1043,46.1393672 C1043,59.1320285 1038.73421,70.0665128 1030.22133,78.9495243 C1021.70044,87.8392399 1010.62354,92.2773936 997,92.2773936 C983.365766,92.2773936 972.290206,87.8392399 963.777332,78.9495243 C955.256437,70.0665128 951,59.1320285 951,46.1393672 Z" id="Fill-5" fill="#FC3F3F" mask="url(#mask-2)"></path>
            <polygon id="Fill-7" fill="#FC3F3F" mask="url(#mask-2)" points="1155 355 1068 104 1150.39414 104 1198.49933 280.212464 1246.60586 104 1329 104 1242 355"></polygon>
            <path d="M1466.93624,151.199732 C1453.9605,151.199732 1443.9739,155.381279 1436.98315,163.739019 C1429.98169,172.102112 1426.48497,183.617428 1426.48497,198.28229 L1499.19414,198.28229 C1499.87447,195.557056 1500.21865,192.652461 1500.21865,189.581888 C1500.21865,178.667569 1497.31387,169.542856 1491.51503,162.203732 C1485.70547,154.869963 1477.5121,151.199732 1466.93624,151.199732 M1469.4955,99 C1502.26632,99 1528.20308,108.642722 1547.32453,127.914781 C1566.43794,147.193532 1576,173.894395 1576,208.005323 C1576,220.975614 1574.46257,234.79319 1571.39039,249.458052 L1425.97339,249.458052 C1426.65371,264.812253 1431.86196,277.182885 1441.59008,286.561918 C1451.31821,295.950321 1466.24788,300.636491 1486.3925,300.636491 C1498.68122,300.636491 1511.56322,299.532209 1525.05189,297.308922 C1538.53252,295.095004 1550.22127,291.768774 1560.12617,287.330231 L1570.36588,340.041279 C1557.39014,346.527763 1542.79795,351.476284 1526.58798,354.882825 C1510.37131,358.290706 1493.5627,360 1476.15279,360 C1454.302,360 1435.01315,356.842423 1418.29294,350.533963 C1401.56468,344.224164 1387.56979,335.436759 1376.30557,324.175762 C1365.04136,312.917442 1356.50514,299.443867 1350.70362,283.747004 C1344.8954,268.05951 1342,250.658707 1342,231.545933 C1342,211.075896 1344.98379,192.652461 1350.95941,176.276967 C1356.927,159.900134 1365.46455,146.000908 1376.5627,134.567242 C1387.65148,123.140268 1401.05176,114.352862 1416.75684,108.211717 C1432.45255,102.070572 1450.03925,99 1469.4955,99" id="Fill-8" fill="#FC3F3F" mask="url(#mask-2)"></path>
            <path d="M246.837748,158.025643 L246.839087,158.028324 L80.634325,51.3303538 C71.8119954,45.7079682 61.8929008,43 52.0970081,43 C34.9250693,43 18.1334495,51.3156074 8.28265159,66.8140336 C2.76133025,75.1055107 0,85.0606454 0,95.5546927 L0,309.484184 C0,338.226184 23.1887462,362 52.4612573,362 C62.4044566,362 72.3489951,359.237068 80.6329859,353.708523 L246.837748,246.475662 C271.127277,230.993322 278.309146,198.386435 262.843286,174.046895 C258.442834,167.419076 252.920174,161.890531 246.837748,158.025643" id="Fill-9" fill="#FC3F3F" mask="url(#mask-2)"></path>
            <path d="M348.022917,198.05627 L323.640638,198.05627 L323.640638,259.789312 L348.022917,259.789312 L348.022917,277.034585 C328.226966,286.935345 310.62104,291.880365 295.197102,291.880365 C278.895815,291.880365 264.051865,287.952216 250.667932,280.090557 C245.387762,276.991713 240.577743,273.409219 236.203051,269.381928 L170,312.058354 C180.400945,322.655783 192.367724,331.729916 205.920429,339.259316 C230.803668,353.089565 258.669895,360 289.523129,360 C310.764363,360 333.24862,356.28755 356.973222,348.86399 C380.689786,341.44177 400.697373,331.767429 417,319.827569 L417,198 L348.022917,198 L348.022917,198.05627 Z" id="Fill-10" fill="#FFFFFF" mask="url(#mask-2)"></path>
            <path d="M235.32565,134.677908 C239.98297,130.132695 245.130253,126.108624 250.837111,122.672851 C263.926873,114.793945 278.611021,110.854492 294.905619,110.854492 C308.868211,110.854492 323.046332,113.918213 337.445338,120.046997 C351.844343,126.175781 364.565964,134.492553 375.623587,145 L421,88.966553 C405.293089,74.9575197 386.094861,63.7946169 363.406654,55.4765015 C340.718447,47.1597293 318.028902,43 295.340695,43 C263.633699,43 234.910654,49.8607998 209.168884,63.5743406 C194.253141,71.5244334 181.204879,81.2233049 170,92.6467784 L235.32565,134.677908 Z" id="Fill-11" fill="#FFFFFF" mask="url(#mask-2)"></path>
            <polygon id="Fill-12" fill="#FFFFFF" mask="url(#mask-2)" points="117.201116 162 140 162 124.339498 243 105.801674 243 115.935256 191.002124 86.4601302 234.912637 72.9884279 234.912637 60.6687256 190.887858 50.5351442 243 32 243 47.6578233 162 70.3401674 162 84.6182698 209.954194"></polygon>
            <path d="M208.14087,164.718784 C213.760308,167.200193 218.381361,170.577999 222,174.850871 L208.14087,189.504903 C205.831014,186.224328 202.980984,183.608393 199.594809,181.665089 C196.204603,179.719121 192.739148,178.744139 189.198445,178.744139 C184.811199,178.744139 180.728977,179.870962 176.957154,182.120613 C173.182644,184.372928 170.199585,187.445719 168.00529,191.336324 C165.810995,195.229592 164.714519,199.505127 164.714519,204.160266 C164.714519,208.129455 165.561063,211.716376 167.255494,214.92103 C168.947238,218.127016 171.297404,220.644387 174.299275,222.47714 C177.30249,224.308561 180.690009,225.22627 184.464519,225.22627 C187.774102,225.22627 191.336304,224.387146 195.147095,222.707566 C198.959229,221.029319 202.442152,218.738378 205.598551,215.836075 L216.572714,229.003659 C211.721884,233.581545 206.138726,237.228404 199.825929,239.936243 C193.510444,242.644082 187.389798,244 181.462648,244 C173.991563,244 167.330742,242.359047 161.478841,239.078472 C155.626939,235.796566 151.085165,231.274621 147.85083,225.511305 C144.616495,219.750654 143,213.244115 143,205.990355 C143,197.599117 145.117703,189.964423 149.353109,183.094263 C153.585828,176.226767 159.361138,170.827072 166.677694,166.895178 C173.991563,162.964615 181.998792,161 190.700725,161 C196.707154,161 202.518744,162.240039 208.14087,164.718784" id="Fill-13" fill="#FFFFFF" mask="url(#mask-2)"></path>
        </g>
    </g>
</svg>