<?xml version="1.0" encoding="UTF-8" standalone="no"?>
<svg width="131px" height="30px" viewBox="0 0 131 30" version="1.1" xmlns="http://www.w3.org/2000/svg" xmlns:xlink="http://www.w3.org/1999/xlink">
    <!-- Generator: Sketch 48.1 (47250) - http://www.bohemiancoding.com/sketch -->
    <title>Page 1</title>
    <desc>Created with Sketch.</desc>
    <defs>
        <polygon id="path-1" points="0 30 131 30 131 0 0 0"></polygon>
    </defs>
    <g id="Desktop-HD" stroke="none" stroke-width="1" fill="none" fill-rule="evenodd" transform="translate(-135.000000, -26.000000)">
        <g id="Page-1" transform="translate(135.000000, 26.000000)">
            <path d="M56.1319242,19.7296272 C56.7472303,18.5944324 57.0553934,17.3330315 57.0553934,15.9461946 C57.0553934,14.5834547 56.7472303,13.3344873 56.1319242,12.1986322 C55.5160513,11.0633274 54.6728246,10.1725124 53.6016774,9.52684768 C52.5304168,8.88140299 51.3540929,8.55868064 50.0739523,8.55868064 C48.7931318,8.55868064 47.6047942,8.88140299 46.5092795,9.52684768 C45.4131981,10.1725124 44.5451506,11.0633274 43.9050237,12.1986322 C43.26433,13.3344873 42.9446066,14.5834547 42.9446066,15.9461946 C42.9446066,17.3330315 43.2706769,18.5944324 43.9234976,19.7296272 C44.5756382,20.8654823 45.4436857,21.7620188 46.5277534,22.4192369 C47.6110277,23.0771151 48.7931318,23.4054491 50.0739523,23.4054491 C51.3540929,23.4054491 52.5304168,23.0771151 53.6016774,22.4192369 C54.6728246,21.7620188 55.5160513,20.8654823 56.1319242,19.7296272 Z M62.1715354,9.31173613 C63.3905874,11.2723872 64,13.4716965 64,15.9103243 C64,18.3730491 63.3905874,20.5965653 62.1715354,22.5806531 C60.9524835,24.565401 59.2775905,26.131039 57.147763,27.2785574 C55.0173689,28.4261858 52.6349134,29 49.9999433,29 C47.3647466,29 44.9820644,28.4324576 42.852237,27.2966026 C40.7218429,26.1612977 39.0475165,24.5952196 37.8285779,22.5985882 C36.609526,20.6027271 36,18.3730491 36,15.9103243 C36,13.4716965 36.609526,11.2723872 37.8285779,9.31173613 C39.0475165,7.35163524 40.7218429,5.80954396 42.852237,4.6854623 C44.9820644,3.5619308 47.3647466,3 49.9999433,3 C52.6349134,3 55.0173689,3.5619308 57.147763,4.6854623 C59.2775905,5.80954396 60.9524835,7.35163524 62.1715354,9.31173613 Z" id="Fill-1" fill="#FFFFFF"></path>
            <path d="M73.3949844,22.4357818 C73.3949844,22.9555711 73.5176821,23.3589336 73.7647699,23.6459767 C74.0110115,23.9332343 74.4882632,24.0768095 75.1973713,24.0768095 C75.628687,24.0768095 76.1522375,24.0357114 76.768869,23.9537297 L77,28.4666901 C76.3832476,28.6306534 75.6827223,28.7601715 74.8970944,28.8564248 C74.1113456,28.951927 73.3023869,29 72.4705811,29 C71.2378017,29 70.2058112,28.8359294 69.3738846,28.5076809 C68.5419579,28.1795398 67.8790276,27.7422686 67.3865445,27.1949017 C66.8932151,26.6480713 66.538661,26.0255903 66.3236076,25.3281025 C66.1075871,24.6306148 66,23.9127389 66,23.1742603 L66,4 L73.3949844,4 L73.3949844,22.4357818 Z" id="Fill-3" fill="#FC3F3F"></path>
            <mask id="mask-2" fill="white">
                <use xlink:href="#path-1"></use>
            </mask>
            <g id="Clip-6"></g>
            <path d="M79.388855,29 L85.611145,29 L85.611145,8.47958725 L79.388855,8.47958725 L79.388855,29 Z M79,3.76913141 C79,2.70841627 79.3238593,1.81528624 79.9721883,1.08886505 C80.619907,0.363210594 81.4626126,0 82.5,0 C83.5365737,0 84.379381,0.363210594 85.02771,1.08886505 C85.6754287,1.81528624 86,2.70841627 86,3.76913141 C86,4.83050374 85.6754287,5.7237433 85.02771,6.44939776 C84.379381,7.17559988 83.5365737,7.53815328 82.5,7.53815328 C81.4626126,7.53815328 80.619907,7.17559988 79.9721883,6.44939776 C79.3238593,5.7237433 79,4.83050374 79,3.76913141 Z" id="Fill-5" fill="#FC3F3F" mask="url(#mask-2)"></path>
            <polygon id="Fill-7" fill="#FC3F3F" mask="url(#mask-2)" points="96.3333333 29 89 8 95.9451 8 99.9999436 22.7428754 104.0549 8 111 8 103.666667 29"></polygon>
            <path d="M121.678311,12.3999774 C120.569273,12.3999774 119.715718,12.752445 119.118218,13.4569288 C118.519802,14.1618639 118.220938,15.1325036 118.220938,16.3686221 L124.435397,16.3686221 C124.493544,16.138909 124.522961,15.8940772 124.522961,15.635255 C124.522961,14.715274 124.27469,13.9461411 123.779062,13.3275177 C123.282519,12.7093456 122.582231,12.3999774 121.678311,12.3999774 M121.897051,8 C124.697976,8 126.914793,8.81279649 128.549105,10.4372612 C130.18273,12.0622901 131,14.3129375 131,17.1881882 C131,18.2814694 130.868596,19.4461693 130.606016,20.6822879 L118.177213,20.6822879 C118.23536,21.9765117 118.680509,23.019247 119.511973,23.8098169 C120.343437,24.6011765 121.619477,24.9961793 123.341239,24.9961793 C124.391557,24.9961793 125.492583,24.9030981 126.64546,24.7156946 C127.797651,24.5290808 128.79669,24.2487089 129.643263,23.8745788 L130.518452,28.3176557 C129.409413,28.8644091 128.162218,29.2815258 126.77675,29.5686673 C125.39071,29.8559216 123.954077,30 122.46605,30 C120.598462,30 118.949842,29.7338441 117.520764,29.2020965 C116.090999,28.6702361 114.894854,27.9295352 113.9321,26.9803324 C112.969347,26.0313553 112.239756,24.8956516 111.743899,23.5725444 C111.24747,22.2502269 111,20.7834926 111,19.1724541 C111,17.4470104 111.255025,15.8940772 111.765762,14.5137673 C112.275812,13.1333446 113.005517,11.9617623 113.954077,10.998005 C114.901836,10.0348119 116.047159,9.29411101 117.389474,8.77646661 C118.730988,8.2588222 120.234124,8 121.897051,8" id="Fill-8" fill="#FC3F3F" mask="url(#mask-2)"></path>
            <path d="M20.0384888,12.3751308 L20.0385975,12.3753493 L6.54595997,3.67896301 C5.82975609,3.22071215 5.02451593,3 4.22927741,3 C2.83524548,3 1.47208815,3.67776111 0.67239238,4.94095572 C0.224167031,5.61675009 0,6.42814038 0,7.28345457 L0,24.7197141 C0,27.0623222 1.88248124,29 4.25884745,29 C5.06604445,29 5.87335016,28.7748081 6.54585125,28.3242056 L20.0384888,19.5842232 C22.0103324,18.3223398 22.5933624,15.6647251 21.3378313,13.6809382 C20.9805991,13.1407397 20.532265,12.6901373 20.0384888,12.3751308" id="Fill-9" fill="#FC3F3F" mask="url(#mask-2)"></path>
            <path d="M29.4148111,16.0048628 L27.4405375,16.0048628 L27.4405375,21.3398171 L29.4148111,21.3398171 L29.4148111,22.8301494 C27.8119001,23.6857705 26.386319,24.113118 25.1374172,24.113118 C23.8174749,24.113118 22.6155356,23.7736483 21.5318164,23.0942457 C21.1042722,22.8264444 20.714797,22.5168461 20.3605709,22.1688086 L15,25.8568948 C15.8421818,26.772722 16.8111517,27.5569063 17.9085368,28.2075952 C19.9233739,29.4028019 22.1797486,30 24.6779861,30 C26.3979241,30 28.2185117,29.679171 30.1395321,29.0376288 C32.0599017,28.3962024 33.6799492,27.5601482 35,26.5283084 L35,16 L29.4148111,16 L29.4148111,16.0048628 Z" id="Fill-10" fill="#FFFFFF" mask="url(#mask-2)"></path>
            <path d="M19.4654926,10.1904241 C19.8551489,9.83393687 20.2857981,9.51832344 20.7632643,9.24885108 C21.8584236,8.63089767 23.0869779,8.32192096 24.4502709,8.32192096 C25.6184559,8.32192096 26.8046732,8.56221277 28.0093709,9.04290173 C29.2140686,9.52359068 30.2784273,10.1758865 31.203567,11 L35,6.60521984 C33.685876,5.50647213 32.0796497,4.63095034 30.1814332,3.97854914 C28.2832167,3.32625328 26.3848882,3 24.4866717,3 C21.8338951,3 19.4307719,3.53810195 17.2770779,4.61367377 C16.0291473,5.23721047 14.93746,5.99790627 14,6.89386497 L19.4654926,10.1904241 Z" id="Fill-11" fill="#FFFFFF" mask="url(#mask-2)"></path>
            <polygon id="Fill-12" fill="#FFFFFF" mask="url(#mask-2)" points="9.10009302 14 11 14 9.69495814 20 8.15013953 20 8.99460465 16.1483055 6.53834419 19.400936 5.41570233 19.400936 4.38906047 16.1398413 3.54459535 20 2 20 3.3048186 14 5.19501395 14 6.38485581 17.5521625"></polygon>
            <path d="M16.7719758,14.3136324 C17.2699007,14.5229078 17.6793611,14.807783 18,15.1681457 L16.7719758,16.4040279 C16.5673051,16.127353 16.3147707,15.9067319 16.0147299,15.7428388 C15.7143319,15.578721 15.4072663,15.4964936 15.0935331,15.4964936 C14.7047898,15.4964936 14.3430739,15.5915269 14.0088617,15.7812565 C13.6744115,15.9712108 13.4100898,16.2303619 13.2156586,16.5584851 C13.0212274,16.886833 12.9240713,17.2474204 12.9240713,17.6400225 C12.9240713,17.9747733 12.9990815,18.2772848 13.149221,18.5475568 C13.2991223,18.8179411 13.5073649,19.0302495 13.7733535,19.1848191 C14.0394612,19.3392763 14.339621,19.4166734 14.6740713,19.4166734 C14.9673255,19.4166734 15.2829637,19.3459039 15.6206287,19.2042526 C15.9584127,19.0627136 16.2670261,18.8695017 16.546707,18.6247292 L17.5191012,19.7352483 C17.0892809,20.1213352 16.5945707,20.4289015 16.0352089,20.6572735 C15.4756089,20.8856455 14.9332732,21 14.4080827,21 C13.7460879,21 13.1558886,20.8616064 12.6373656,20.5849314 C12.1188427,20.3081441 11.716407,19.9267753 11.4298204,19.4407125 C11.1432338,18.9548744 11,18.4061301 11,17.7943673 C11,17.0866726 11.1876446,16.4427826 11.5629337,15.8633716 C11.9379848,15.2841852 12.4497211,14.8287892 13.0980235,14.4971837 C13.7460879,14.1656904 14.4555892,14 15.2266465,14 C15.7588617,14 16.2738128,14.1045816 16.7719758,14.3136324" id="Fill-13" fill="#FFFFFF" mask="url(#mask-2)"></path>
        </g>
    </g>
</svg>