<?xml version="1.0" encoding="UTF-8" standalone="no"?>
<svg width="107px" height="35px" viewBox="0 0 107 35" version="1.1" xmlns="http://www.w3.org/2000/svg" xmlns:xlink="http://www.w3.org/1999/xlink">
    <!-- Generator: Sketch 48.1 (47250) - http://www.bohemiancoding.com/sketch -->
    <title>Page 1</title>
    <desc>Created with Sketch.</desc>
    <defs>
        <polygon id="path-1" points="0 0.9219 0 13.7889 14.6637 13.7889 14.6637 0.9219"></polygon>
        <polygon id="path-3" points="10.2739 14 0.4969 14 0.4969 0.7105 10.2739 0.7105 10.2739 14"></polygon>
    </defs>
    <g id="Desktop-HD" stroke="none" stroke-width="1" fill="none" fill-rule="evenodd" transform="translate(-1304.000000, -2260.000000)">
        <g id="Page-1" transform="translate(1304.000000, 2259.000000)">
            <g id="Group-3" transform="translate(0.000000, 21.515800)">
                <mask id="mask-2" fill="white">
                    <use xlink:href="#path-1"></use>
                </mask>
                <g id="Clip-2"></g>
                <path d="M9.4897,0.9219 L8.5167,4.3579 C8.1357,5.7129 7.7147,7.5269 7.3527,9.0909 L7.2957,9.0909 C7.0257,7.5269 6.6457,5.8109 6.2817,4.3949 L5.4417,0.9219 L0.8037,0.9219 L-0.0003,13.7889 L3.1697,13.7889 L3.3817,9.1699 C3.4387,7.7189 3.4967,5.8109 3.5697,3.9939 L3.6107,3.9939 C3.9157,5.7489 4.2997,7.6609 4.6427,9.0329 L5.7127,13.5219 L8.4017,13.5219 L9.6827,9.0329 C10.1027,7.6209 10.6357,5.6949 11.0367,3.9939 L11.0947,3.9939 C11.0947,5.9989 11.1117,7.7189 11.1717,9.1699 L11.3227,13.7889 L14.6637,13.7889 L14.0147,0.9219 L9.4897,0.9219 Z" id="Fill-1" fill="#FFFFFE" mask="url(#mask-2)"></path>
            </g>
            <path d="M21.6899,34.1584 C19.0539,34.1584 17.5649,31.6964 17.5649,28.9294 C17.5649,26.1214 18.9399,23.5624 21.7069,23.5624 C24.4769,23.5624 25.8129,26.2354 25.8129,28.8124 C25.8129,31.7344 24.3239,34.1584 21.6899,34.1584 M21.7659,22.2084 C18.3289,22.2084 15.8099,24.8814 15.8099,28.9674 C15.8099,32.8604 18.1759,35.5154 21.5929,35.5154 C24.8759,35.5154 27.5689,33.1474 27.5689,28.7384 C27.5689,24.8994 25.2979,22.2084 21.7659,22.2084" id="Fill-4" fill="#FFFFFE"></path>
            <polygon id="Fill-6" fill="#FFFFFE" points="39.8657 23.8508 43.7787 23.8508 43.7787 35.3048 45.4587 35.3048 45.4587 23.8508 49.3907 23.8508 49.3907 22.4378 39.8657 22.4378"></polygon>
            <polygon id="Fill-8" fill="#FFFFFE" points="52.0078 29.2707 56.9888 29.2707 56.9888 27.8987 52.0078 27.8987 52.0078 23.8327 57.2948 23.8327 57.2948 22.4377 50.3248 22.4377 50.3248 35.3047 57.5818 35.3047 57.5818 33.9107 52.0078 33.9107"></polygon>
            <g id="Group-12" transform="translate(58.000000, 21.515800)">
                <mask id="mask-4" fill="white">
                    <use xlink:href="#path-3"></use>
                </mask>
                <g id="Clip-11"></g>
                <path d="M7.2749,2.1045 C8.3439,2.1045 9.2419,2.3345 9.8539,2.6385 L10.2739,1.2835 C9.8349,1.0545 8.8019,0.7105 7.2179,0.7105 C3.2269,0.7105 0.4969,3.4235 0.4969,7.4685 C0.4969,11.7085 3.2099,14.0005 6.8349,14.0005 C8.4009,14.0005 9.6429,13.6935 10.2349,13.3885 L9.9089,12.0515 C9.2419,12.3765 8.2109,12.5855 7.1809,12.5855 C4.0679,12.5855 2.2539,10.5805 2.2539,7.4135 C2.2539,4.0325 4.2589,2.1045 7.2749,2.1045" id="Fill-10" fill="#FFFFFE" mask="url(#mask-4)"></path>
            </g>
            <path d="M72.3584,29.9582 L73.6154,26.2352 C73.8844,25.4552 74.0754,24.6532 74.2684,23.9072 L74.3044,23.9072 C74.4944,24.6532 74.6864,25.4152 74.9724,26.2542 L76.2524,29.9582 L72.3584,29.9582 Z M73.3514,22.4372 L68.9584,35.3052 L70.6744,35.3052 L72.0124,31.2582 L76.5794,31.2582 L77.9514,35.3052 L79.7264,35.3052 L75.3364,22.4372 L73.3514,22.4372 Z" id="Fill-13" fill="#FFFFFE"></path>
            <path d="M84.1943,34.1193 C83.6023,34.1193 83.1463,34.1013 82.8003,34.0453 L82.8003,29.1373 L84.1743,29.1373 C85.9863,29.1373 87.4963,29.8853 87.4963,31.6193 C87.4963,33.4893 85.9123,34.1193 84.1943,34.1193 Z M82.8003,23.7343 C83.0663,23.6783 83.5063,23.6203 84.2713,23.6203 C85.9483,23.6203 87.0773,24.2333 87.0773,25.7213 C87.0773,26.9613 86.0463,27.8983 84.3093,27.8983 L82.8003,27.8983 L82.8003,23.7343 Z M86.5993,28.4303 L86.5993,28.3743 C87.9363,27.8983 88.7763,26.8083 88.7763,25.5483 C88.7763,24.5373 88.3543,23.7733 87.6853,23.2773 C86.9053,22.6283 85.8383,22.3433 84.1743,22.3433 C83.0303,22.3433 81.8643,22.4563 81.1393,22.6283 L81.1393,35.2653 C81.6943,35.3413 82.5733,35.4193 83.7173,35.4193 C85.8163,35.4193 87.2683,35.0373 88.1463,34.2163 C88.8143,33.6053 89.2503,32.7463 89.2503,31.6383 C89.2503,29.7303 87.8203,28.7193 86.5993,28.4303 Z" id="Fill-15" fill="#FFFFFE"></path>
            <polygon id="Fill-17" fill="#FFFFFE" points="92.6723 22.4377 90.9893 22.4377 90.9893 35.3047 98.1683 35.3047 98.1683 33.9107 92.6723 33.9107"></polygon>
            <polygon id="Fill-19" fill="#FFFFFE" points="101.206 33.9103 101.206 29.2703 106.187 29.2703 106.187 27.8983 101.206 27.8983 101.206 23.8323 106.492 23.8323 106.492 22.4373 99.522 22.4373 99.522 35.3053 106.777 35.3053 106.777 33.9103"></polygon>
            <path d="M29.4375,35.0041 L29.4375,22.4141 L31.2295,22.4141 L35.2445,28.7831 C36.1605,30.2581 36.9075,31.5831 37.4865,32.8751 L37.5425,32.8581 C37.3935,31.1761 37.3555,29.6431 37.3555,27.6811 L37.3555,22.4141 L38.8875,22.4141 L38.8875,35.0041 L37.2445,35.0041 L33.2485,28.6161 C32.3685,27.2131 31.5285,25.7751 30.9125,24.4121 L30.8565,24.4291 C30.9505,26.0181 30.9695,27.5321 30.9695,29.6251 L30.9695,35.0041 L29.4375,35.0041 Z" id="Fill-21" fill="#FFFFFE"></path>
            <g id="Group-25" transform="translate(20.000000, 0.515800)" fill="#D7272D">
                <path d="M33.1308,7.9648 C32.7828,3.8608 31.2878,1.4098 31.2878,1.4098 C25.1538,-0.1372 4.2838,0.6768 2.4808,0.8748 C0.6778,1.0728 0.3988,1.7068 0.3988,1.7068 C-0.9022,12.7908 1.9068,16.6468 1.9068,16.6468 C3.3518,17.2328 7.3598,17.2258 7.3598,17.2258 C7.3598,17.2258 7.5838,17.4848 8.0708,17.8708 C8.1208,17.9078 8.1738,17.9438 8.2248,17.9858 C8.2268,17.9868 8.2288,17.9898 8.2318,17.9928 C8.9728,18.5608 9.7978,19.0258 10.6268,19.3988 L10.6248,19.3848 C11.6868,19.8678 13.0308,20.3318 14.6938,20.6658 L14.7008,20.6748 C15.2488,20.7828 15.5838,20.8258 15.5838,20.8258 C14.3768,18.8048 15.3598,17.2178 15.3598,17.2178 C15.7688,17.2658 29.5208,16.8088 30.8428,16.5848 C32.1638,16.3608 33.1848,15.7038 33.1848,15.7038 C33.7078,14.3308 33.4808,12.0648 33.1308,7.9648" id="Fill-23"></path>
            </g>
        </g>
    </g>
</svg>