<svg width="1576" height="362" viewBox="0 0 1576 362" xmlns="http://www.w3.org/2000/svg" xmlns:xlink="http://www.w3.org/1999/xlink">
    <title>
        Page 1
    </title>
    <defs>
        <path id="a" d="M0 362h1576V0H0z"/>
    </defs>
    <g fill="none" fill-rule="evenodd" opacity=".058">
        <path d="M673.988 246.973c7.274-13.84 10.917-29.22 10.917-46.129 0-16.615-3.643-31.843-10.917-45.691-7.28-13.842-17.249-24.704-29.911-32.576-12.664-7.87-26.57-11.804-41.703-11.804-15.14 0-29.189 3.935-42.14 11.804-12.957 7.872-23.218 18.734-30.785 32.576-7.574 13.848-11.354 29.076-11.354 45.691 0 16.909 3.855 32.288 11.572 46.129 7.71 13.848 17.97 24.78 30.786 32.792 12.806 8.021 26.78 12.025 41.921 12.025 15.133 0 29.04-4.004 41.703-12.025 12.662-8.013 22.63-18.944 29.911-32.792zm71.397-127.018c14.41 23.904 21.615 50.72 21.615 80.452 0 30.026-7.204 57.136-21.615 81.326-14.411 24.199-34.21 43.288-59.388 57.279C660.812 353.004 632.648 360 601.499 360c-31.151 0-59.318-6.92-84.496-20.768-25.184-13.842-44.977-32.936-59.387-57.28-14.41-24.334-21.616-51.52-21.616-81.545 0-29.733 7.205-56.548 21.616-80.452 14.41-23.899 34.203-42.7 59.387-56.405C542.181 49.85 570.348 43 601.5 43c31.15 0 59.313 6.851 84.498 20.55 25.177 13.705 44.977 32.506 59.388 56.405z" fill="#FFF"/>
        <path d="M881.017 278.079c0 6.487 1.36 11.52 4.101 15.103 2.731 3.585 8.025 5.377 15.89 5.377 4.783 0 10.59-.513 17.429-1.536L921 353.344c-6.84 2.047-14.61 3.663-23.323 4.864C888.962 359.4 879.99 360 870.765 360c-13.673 0-25.119-2.048-34.346-6.144-9.226-4.095-16.579-9.552-22.041-16.384-5.471-6.824-9.404-14.593-11.789-23.297-2.396-8.705-3.589-17.664-3.589-26.88V48h82.017v230.079z" fill="#FC3F3F"/>
        <mask id="b" fill="#fff">
            <use xlink:href="#a"/>
        </mask>
        <path d="M956.11 355h81.78V103.802h-81.78V355zM951 46.14c0-12.985 4.256-23.918 12.777-32.81C972.29 4.445 983.366 0 997 0c13.624 0 24.7 4.446 33.221 13.33 8.513 8.892 12.779 19.825 12.779 32.81 0 12.992-4.266 23.927-12.779 32.81-8.52 8.89-19.597 13.327-33.221 13.327-13.634 0-24.71-4.438-33.223-13.327C955.257 70.067 951 59.132 951 46.14z" fill="#FC3F3F" mask="url(#b)"/>
        <path fill="#FC3F3F" mask="url(#b)" d="M1155 355l-87-251h82.394l48.105 176.212L1246.606 104H1329l-87 251z"/>
        <path d="M1466.936 151.2c-12.976 0-22.962 4.181-29.953 12.539-7.001 8.363-10.498 19.878-10.498 34.543h72.71c.68-2.725 1.024-5.63 1.024-8.7 0-10.914-2.905-20.04-8.704-27.378-5.81-7.334-14.003-11.004-24.579-11.004m2.56-52.2c32.77 0 58.707 9.643 77.829 28.915 19.113 19.279 28.675 45.98 28.675 80.09 0 12.97-1.537 26.788-4.61 41.453h-145.417c.68 15.354 5.889 27.725 15.617 37.104 9.728 9.388 24.658 14.074 44.803 14.074 12.288 0 25.17-1.104 38.659-3.327 13.48-2.214 25.17-5.54 35.074-9.979l10.24 52.711c-12.976 6.487-27.568 11.435-43.778 14.842-16.217 3.408-33.025 5.117-50.435 5.117-21.851 0-41.14-3.158-57.86-9.466-16.728-6.31-30.723-15.097-41.987-26.358-11.265-11.259-19.8-24.732-25.602-40.429-5.809-15.687-8.704-33.088-8.704-52.201 0-20.47 2.984-38.894 8.96-55.269 5.967-16.377 14.505-30.276 25.603-41.71 11.088-11.427 24.489-20.214 40.194-26.355 15.696-6.141 33.282-9.212 52.738-9.212" fill="#FC3F3F" mask="url(#b)"/>
        <path d="M246.838 158.026l.001.002L80.634 51.33A53.007 53.007 0 0 0 52.097 43c-17.172 0-33.964 8.316-43.814 23.814C2.76 75.106 0 85.061 0 95.554v213.93C0 338.226 23.189 362 52.461 362c9.943 0 19.888-2.763 28.172-8.291l166.205-107.233c24.29-15.483 31.471-48.09 16.005-72.43-4.4-6.627-9.923-12.155-16.005-16.02" fill="#FC3F3F" mask="url(#b)"/>
        <path d="M348.023 198.056H323.64v61.733h24.382v17.246c-19.796 9.9-37.402 14.845-52.826 14.845-16.301 0-31.145-3.928-44.53-11.79a84.26 84.26 0 0 1-14.464-10.708L170 312.058c10.4 10.598 22.368 19.672 35.92 27.201C230.804 353.09 258.67 360 289.523 360c21.241 0 43.726-3.712 67.45-11.136 23.717-7.422 43.724-17.097 60.027-29.036V198h-68.977v.056z" fill="#FFF" mask="url(#b)"/>
        <path d="M235.326 134.678a84.667 84.667 0 0 1 15.511-12.005c13.09-7.88 27.774-11.819 44.069-11.819 13.962 0 28.14 3.064 42.54 9.193 14.398 6.129 27.12 14.446 38.178 24.953L421 88.967c-15.707-14.01-34.905-25.172-57.593-33.49C340.718 47.16 318.029 43 295.34 43c-31.707 0-60.43 6.86-86.172 20.574-14.916 7.95-27.964 17.65-39.169 29.073l65.326 42.03z" fill="#FFF" mask="url(#b)"/>
        <path fill="#FFF" mask="url(#b)" d="M117.201 162H140l-15.66 81h-18.538l10.133-51.998-29.475 43.91H72.988l-12.32-44.024L50.536 243H32l15.658-81H70.34l14.278 47.954z"/>
        <path d="M208.14 164.719c5.62 2.481 10.241 5.859 13.86 10.132l-13.86 14.654c-2.309-3.28-5.159-5.897-8.545-7.84-3.39-1.946-6.856-2.92-10.397-2.92-4.387 0-8.469 1.126-12.24 3.376-3.775 2.252-6.758 5.325-8.953 9.215-2.194 3.894-3.29 8.17-3.29 12.824 0 3.97.846 7.556 2.54 10.761 1.692 3.206 4.042 5.723 7.044 7.556 3.003 1.832 6.391 2.75 10.166 2.75 3.31 0 6.871-.84 10.682-2.52 3.812-1.678 7.295-3.969 10.452-6.87l10.974 13.167c-4.851 4.578-10.434 8.224-16.747 10.932-6.316 2.708-12.436 4.064-18.363 4.064-7.471 0-14.132-1.641-19.984-4.922-5.852-3.281-10.394-7.803-13.628-13.567-3.235-5.76-4.851-12.267-4.851-19.52 0-8.392 2.118-16.027 6.353-22.897 4.233-6.867 10.008-12.267 17.325-16.199 7.314-3.93 15.32-5.895 24.023-5.895 6.006 0 11.818 1.24 17.44 3.719" fill="#FFF" mask="url(#b)"/>
    </g>
</svg>
