<svg width="131" height="30" viewBox="0 0 131 30" xmlns="http://www.w3.org/2000/svg" xmlns:xlink="http://www.w3.org/1999/xlink">
    <title>
        Page 1
    </title>
    <defs>
        <path id="a" d="M0 30h131V0H0z"/>
    </defs>
    <g fill="none" fill-rule="evenodd">
        <path d="M56.132 19.73c.615-1.136.923-2.397.923-3.784 0-1.363-.308-2.612-.923-3.747a6.889 6.889 0 0 0-2.53-2.672 6.709 6.709 0 0 0-3.528-.968 6.9 6.9 0 0 0-3.565.968 7.069 7.069 0 0 0-2.604 2.672c-.64 1.135-.96 2.384-.96 3.747 0 1.387.326 2.648.978 3.784a7.383 7.383 0 0 0 2.605 2.69 6.705 6.705 0 0 0 3.546.985c1.28 0 2.456-.328 3.528-.986a7.015 7.015 0 0 0 2.53-2.69zm6.04-10.418C63.39 11.272 64 13.472 64 15.91c0 2.463-.61 4.687-1.828 6.67-1.22 1.985-2.894 3.551-5.024 4.699C55.018 28.426 52.635 29 50 29s-5.018-.568-7.148-1.703c-2.13-1.136-3.804-2.702-5.023-4.698C36.609 20.603 36 18.373 36 15.91c0-2.438.61-4.638 1.829-6.598 1.219-1.96 2.893-3.502 5.023-4.627C44.982 3.562 47.365 3 50 3s5.017.562 7.148 1.685c2.13 1.125 3.804 2.667 5.024 4.627z" fill="#FFF"/>
        <path d="M73.395 22.436c0 .52.123.923.37 1.21.246.287.723.43 1.432.43.432 0 .955-.04 1.572-.122L77 28.467c-.617.164-1.317.293-2.103.39-.786.095-1.595.143-2.426.143-1.233 0-2.265-.164-3.097-.492-.832-.328-1.495-.766-1.987-1.313a4.922 4.922 0 0 1-1.063-1.867A7.238 7.238 0 0 1 66 23.174V4h7.395v18.436z" fill="#FC3F3F"/>
        <mask id="b" fill="#fff">
            <use xlink:href="#a"/>
        </mask>
        <path d="M79.389 29h6.222V8.48H79.39V29zM79 3.77c0-1.062.324-1.955.972-2.681C80.62.363 81.462 0 82.5 0c1.037 0 1.88.363 2.528 1.089.647.726.972 1.62.972 2.68 0 1.062-.325 1.955-.972 2.68-.649.727-1.491 1.09-2.528 1.09s-1.88-.363-2.528-1.09C79.324 5.724 79 4.831 79 3.77z" fill="#FC3F3F" mask="url(#b)"/>
        <path fill="#FC3F3F" mask="url(#b)" d="M96.333 29L89 8h6.945L100 22.743 104.055 8H111l-7.333 21z"/>
        <path d="M121.678 12.4c-1.109 0-1.962.352-2.56 1.057-.598.705-.897 1.676-.897 2.912h6.214c.059-.23.088-.475.088-.734 0-.92-.248-1.689-.744-2.307-.496-.619-1.197-.928-2.1-.928m.218-4.4c2.801 0 5.018.813 6.652 2.437 1.634 1.625 2.451 3.876 2.451 6.751 0 1.093-.131 2.258-.394 3.494h-12.429c.058 1.295.504 2.337 1.335 3.128.831.791 2.107 1.186 3.83 1.186 1.05 0 2.15-.093 3.303-.28 1.153-.187 2.152-.467 2.998-.841l.875 4.443c-1.109.546-2.356.964-3.741 1.25a21.189 21.189 0 0 1-4.311.432c-1.868 0-3.516-.266-4.945-.798-1.43-.532-2.626-1.272-3.589-2.222a9.298 9.298 0 0 1-2.188-3.407c-.497-1.323-.744-2.79-.744-4.4 0-1.726.255-3.279.766-4.66.51-1.38 1.24-2.551 2.188-3.515.948-.963 2.093-1.704 3.435-2.222 1.342-.517 2.845-.776 4.508-.776" fill="#FC3F3F" mask="url(#b)"/>
        <path d="M20.038 12.375L6.547 3.68A4.29 4.29 0 0 0 4.229 3 4.188 4.188 0 0 0 .672 4.941C.224 5.617 0 6.428 0 7.283V24.72C0 27.062 1.882 29 4.259 29c.807 0 1.614-.225 2.287-.676l13.492-8.74c1.972-1.262 2.555-3.92 1.3-5.903a4.47 4.47 0 0 0-1.3-1.306" fill="#FC3F3F" mask="url(#b)"/>
        <path d="M29.415 16.005H27.44v5.335h1.974v1.49c-1.603.856-3.029 1.283-4.278 1.283-1.32 0-2.521-.34-3.605-1.019a6.872 6.872 0 0 1-1.171-.925L15 25.857c.842.916 1.811 1.7 2.909 2.35C19.923 29.404 22.179 30 24.678 30c1.72 0 3.54-.32 5.462-.962 1.92-.642 3.54-1.478 4.86-2.51V16h-5.585v.005z" fill="#FFF" mask="url(#b)"/>
        <path d="M19.465 10.19c.39-.356.82-.672 1.298-.941 1.095-.618 2.324-.927 3.687-.927 1.168 0 2.355.24 3.56.72A10.74 10.74 0 0 1 31.203 11L35 6.605c-1.314-1.099-2.92-1.974-4.819-2.626C28.283 3.326 26.385 3 24.487 3c-2.653 0-5.056.538-7.21 1.614A13.322 13.322 0 0 0 14 6.894l5.465 3.296z" fill="#FFF" mask="url(#b)"/>
        <path fill="#FFF" mask="url(#b)" d="M9.1 14H11l-1.305 6H8.15l.845-3.852-2.457 3.253H5.416L4.389 16.14 3.545 20H2l1.305-6h1.89l1.19 3.552z"/>
        <path d="M16.772 14.314c.498.209.907.494 1.228.854l-1.228 1.236a2.309 2.309 0 0 0-.757-.661 1.9 1.9 0 0 0-.921-.247c-.39 0-.75.096-1.085.285a2.127 2.127 0 0 0-1.085 1.859c0 .335.075.637.225.908.15.27.358.482.624.637.266.154.567.232.901.232.293 0 .609-.071.947-.213.337-.141.646-.334.926-.58l.972 1.111c-.43.386-.924.694-1.484.922a4.295 4.295 0 0 1-1.627.343c-.662 0-1.252-.138-1.77-.415a3.02 3.02 0 0 1-1.208-1.144 3.179 3.179 0 0 1-.43-1.647c0-.707.188-1.351.563-1.93a3.908 3.908 0 0 1 1.535-1.367A4.605 4.605 0 0 1 15.227 14c.532 0 1.047.105 1.545.314" fill="#FFF" mask="url(#b)"/>
    </g>
</svg>
