<svg width="107" height="35" viewBox="0 0 107 35" xmlns="http://www.w3.org/2000/svg" xmlns:xlink="http://www.w3.org/1999/xlink">
    <title>
        Page 1
    </title>
    <defs>
        <path id="a" d="M0 .922v12.867h14.664V.922z"/>
        <path id="c" d="M10.274 14H.497V.71h9.777V14z"/>
    </defs>
    <g fill="none" fill-rule="evenodd">
        <g transform="translate(0 20.516)">
            <mask id="b" fill="#fff">
                <use xlink:href="#a"/>
            </mask>
            <path d="M9.49.922l-.973 3.436c-.381 1.355-.802 3.169-1.164 4.733h-.057c-.27-1.564-.65-3.28-1.014-4.696L5.442.922H.804L0 13.789h3.17l.212-4.62c.057-1.45.115-3.358.188-5.175h.04c.306 1.755.69 3.667 1.033 5.039l1.07 4.489h2.689l1.28-4.49c.42-1.411.954-3.337 1.355-5.038h.058c0 2.005.017 3.725.077 5.176l.15 4.619h3.342L14.014.922H9.49z" fill="#FFFFFE" mask="url(#b)"/>
        </g>
        <path d="M21.69 33.158c-2.636 0-4.125-2.462-4.125-5.229 0-2.808 1.375-5.367 4.142-5.367 2.77 0 4.106 2.673 4.106 5.25 0 2.922-1.49 5.346-4.123 5.346m.076-11.95c-3.437 0-5.956 2.673-5.956 6.76 0 3.892 2.366 6.547 5.783 6.547 3.283 0 5.976-2.368 5.976-6.777 0-3.839-2.271-6.53-5.803-6.53" fill="#FFFFFE"/>
        <path fill="#FFFFFE" d="M39.866 22.85h3.913v11.455h1.68V22.85h3.932v-1.413h-9.525z"/>
        <path fill="#FFFFFE" d="M52.008 28.27h4.98V26.9h-4.98v-4.066h5.287v-1.395h-6.97v12.867h7.257V32.91h-5.574z"/>
        <g transform="translate(58 20.516)">
            <mask id="d" fill="#fff">
                <use xlink:href="#c"/>
            </mask>
            <path d="M7.275 2.104c1.069 0 1.967.23 2.579.534l.42-1.354C9.834 1.054 8.802.71 7.218.71 3.227.71.497 3.425.497 7.468c0 4.24 2.713 6.533 6.338 6.533 1.566 0 2.808-.307 3.4-.612l-.326-1.337c-.667.325-1.698.534-2.728.534-3.113 0-4.927-2.005-4.927-5.173 0-3.38 2.005-5.309 5.02-5.309" fill="#FFFFFE" mask="url(#d)"/>
        </g>
        <path d="M72.358 28.958l1.257-3.723c.27-.78.46-1.582.653-2.328h.036c.19.746.382 1.508.668 2.347l1.28 3.704h-3.894zm.993-7.52l-4.393 12.867h1.716l1.338-4.047h4.567l1.372 4.047h1.775l-4.39-12.868h-1.985z" fill="#FFFFFE"/>
        <path d="M84.194 33.12c-.592 0-1.048-.019-1.394-.075v-4.908h1.374c1.812 0 3.322.748 3.322 2.482 0 1.87-1.584 2.5-3.302 2.5zM82.8 22.733c.266-.056.706-.114 1.471-.114 1.677 0 2.806.613 2.806 2.101 0 1.24-1.03 2.177-2.768 2.177H82.8v-4.164zm3.8 4.696v-.056c1.336-.476 2.176-1.566 2.176-2.826 0-1.01-.422-1.775-1.09-2.27-.78-.65-1.848-.935-3.512-.935-1.144 0-2.31.113-3.035.285v12.637c.555.076 1.434.154 2.578.154 2.1 0 3.551-.382 4.43-1.203.667-.61 1.103-1.47 1.103-2.578 0-1.908-1.43-2.919-2.65-3.208z" fill="#FFFFFE"/>
        <path fill="#FFFFFE" d="M92.672 21.438H90.99v12.867h7.18V32.91h-5.497z"/>
        <path fill="#FFFFFE" d="M101.206 32.91v-4.64h4.981v-1.372h-4.981v-4.066h5.286v-1.395h-6.97v12.868h7.255V32.91z"/>
        <path d="M29.438 34.004v-12.59h1.792l4.015 6.37c.916 1.474 1.663 2.8 2.242 4.091l.055-.017c-.148-1.682-.187-3.215-.187-5.177v-5.267h1.533v12.59h-1.643l-3.996-6.388c-.88-1.403-1.72-2.84-2.337-4.204l-.055.017c.094 1.59.113 3.103.113 5.196v5.38h-1.532z" fill="#FFFFFE"/>
        <path d="M53.13 7.48C52.784 3.378 51.289.927 51.289.927 45.154-.621 24.284.193 22.48.39c-1.803.198-2.082.832-2.082.832-1.301 11.084 1.508 14.94 1.508 14.94 1.445.586 5.453.579 5.453.579s.224.259.71.645c.05.037.104.073.155.115.002 0 .004.004.007.007a12.126 12.126 0 0 0 2.395 1.406l-.002-.014c1.062.483 2.406.947 4.069 1.28l.007.01c.548.108.883.15.883.15-1.207-2.02-.224-3.607-.224-3.607.409.048 14.16-.41 15.483-.633 1.32-.224 2.342-.881 2.342-.881.523-1.373.296-3.64-.054-7.74" fill="#D7272D"/>
    </g>
</svg>
